<?xml version="1.0" encoding="UTF-8" standalone="no"?>
<!DOCTYPE svg PUBLIC "-//W3C//DTD SVG 1.1//EN" "http://www.w3.org/Graphics/SVG/1.1/DTD/svg11.dtd">
<svg width="100%" height="100%" viewBox="0 0 216 192" version="1.1" xmlns="http://www.w3.org/2000/svg" xmlns:xlink="http://www.w3.org/1999/xlink" xml:space="preserve" xmlns:serif="http://www.serif.com/" style="fill-rule:evenodd;clip-rule:evenodd;stroke-linecap:square;stroke-miterlimit:1.5;">

    <g transform="matrix(1,0,0,1,-42.4815,-167.116)">
        <g transform="matrix(1,0,0,1,1,0)">
            <g transform="matrix(1,0,0,1,3,0)">
                <g transform="matrix(6.71196e-17,1.09615,-0.786041,4.81311e-17,354.299,112.09)">
                    <path d="M123.42,367.397L73.944,367.397L142.372,230.543L210.799,367.397L164.734,367.397" style="fill:rgb(255,96,144);fill-opacity:0;stroke:rgb(255,96,144);stroke-width:20.97px;"/>
                </g>
                <g transform="matrix(6.71196e-17,1.09615,-0.786041,4.81311e-17,420.258,112.09)">
                    <path d="M73.944,367.397L142.372,230.543L210.799,367.397" style="fill:rgb(255,96,144);fill-opacity:0;stroke:rgb(255,96,144);stroke-width:20.97px;stroke-linecap:butt;"/>
                </g>
            </g>
        </g>
        <g transform="matrix(1,0,0,1,4,-5)">
            <g transform="matrix(1,0,0,1,0,-3)">
                <g transform="matrix(6.71196e-17,1.09615,-0.786041,4.81311e-17,345.299,112.09)">
                    <path d="M123.42,367.397L73.944,367.397L142.372,230.543L210.799,367.397L164.734,367.397" style="fill:rgb(103,218,255);fill-opacity:0;stroke:rgb(103,218,255);stroke-width:20.97px;"/>
                </g>
                <g transform="matrix(6.71196e-17,1.09615,-0.786041,4.81311e-17,411.258,112.09)">
                    <path d="M73.944,367.397L142.372,230.543L210.799,367.397" style="fill:rgb(103,218,255);fill-opacity:0;stroke:rgb(103,218,255);stroke-width:20.97px;stroke-linecap:butt;"/>
                </g>
            </g>
        </g>
        <g transform="matrix(6.71196e-17,1.09615,-0.786041,4.81311e-17,349.299,112.09)">
            <path d="M123.42,367.397L73.944,367.397L142.372,230.543L210.799,367.397L164.734,367.397" style="fill-opacity:0;stroke:white;stroke-width:20.97px;"/>
        </g>
        <g transform="matrix(6.71196e-17,1.09615,-0.786041,4.81311e-17,415.258,112.09)">
            <path d="M73.944,367.397L142.372,230.543L210.799,367.397" style="fill-opacity:0;stroke:white;stroke-width:20.97px;stroke-linecap:butt;"/>
        </g>
    </g>
</svg>
